<!-- Generated by IcoMoon.io -->
<svg version="1.1" xmlns="http://www.w3.org/2000/svg" width="33" height="32" viewBox="0 0 33 32">
<title>3</title>
<path d="M20.638 12.613l-3.782-5.175c-0.217 0.067-0.448 0.103-0.686 0.103-1.287 0-2.332-1.045-2.332-2.332s1.045-2.332 2.332-2.332c1.287 0 2.332 1.045 2.332 2.332 0 0.537-0.182 1.032-0.487 1.427l3.632 4.97 1.372-1.372c1.618 6.042 3.237 12.084 4.855 18.126l-18.126-4.855 4.649-4.65-7.106-6.681c-0.343 0.198-0.74 0.311-1.163 0.311-1.287 0-2.332-1.045-2.332-2.332s1.045-2.332 2.332-2.332c1.287 0 2.332 1.045 2.332 2.332 0 0.351-0.078 0.684-0.217 0.983l7.151 6.723 2.237-2.237-6.356-7.332c-0.276 0.115-0.578 0.178-0.895 0.178-1.287 0-2.332-1.045-2.332-2.332s1.045-2.332 2.332-2.332c1.287 0 2.332 1.045 2.332 2.332 0 0.458-0.132 0.885-0.361 1.245l6.278 7.241zM12.469 22.775l13.412 3.592-3.592-13.412c-3.273 3.273-6.547 6.547-9.82 9.82zM6.127 9.269c-0.488 0-0.883 0.396-0.883 0.883s0.396 0.883 0.883 0.883c0.487 0 0.883-0.396 0.883-0.883s-0.396-0.883-0.883-0.883zM10.379 5.253c-0.487 0-0.883 0.396-0.883 0.883s0.396 0.883 0.883 0.883c0.488 0 0.883-0.396 0.883-0.883s-0.396-0.883-0.883-0.883zM16.169 4.326c-0.488 0-0.883 0.396-0.883 0.883s0.396 0.883 0.883 0.883c0.487 0 0.883-0.396 0.883-0.883s-0.396-0.883-0.883-0.883z"></path>
</svg>
