<!-- Generated by IcoMoon.io -->
<svg version="1.1" xmlns="http://www.w3.org/2000/svg" width="33" height="32" viewBox="0 0 33 32">
<title>5</title>
<path d="M20.638 12.613l-3.782-5.175c-0.217 0.067-0.448 0.103-0.686 0.103-1.287 0-2.332-1.045-2.332-2.332s1.045-2.332 2.332-2.332c1.287 0 2.332 1.045 2.332 2.332 0 0.537-0.182 1.032-0.487 1.427l3.632 4.97 1.372-1.372 2.872 10.724 2.737-2.688-1.452-5.946c-1.236-0.058-2.221-1.080-2.221-2.33 0-1.287 1.045-2.332 2.332-2.332s2.332 1.045 2.332 2.332c0 0.827-0.431 1.554-1.081 1.968l1.648 6.752-3.876 3.807 1.564 5.838-18.126-4.855 1.741-1.741-5.305-3.97c-0.385 0.28-0.858 0.445-1.37 0.445-1.287 0-2.332-1.045-2.332-2.332s1.045-2.332 2.332-2.332 2.332 1.045 2.332 2.332c0 0.264-0.044 0.517-0.125 0.754l5.474 4.097 1.902-1.902-7.106-6.681c-0.343 0.198-0.74 0.311-1.163 0.311-1.287 0-2.332-1.045-2.332-2.332s1.045-2.332 2.332-2.332c1.287 0 2.332 1.045 2.332 2.332 0 0.351-0.078 0.684-0.217 0.983l7.15 6.723 2.237-2.237-6.356-7.332c-0.276 0.115-0.578 0.178-0.895 0.178-1.287 0-2.332-1.045-2.332-2.332s1.045-2.332 2.332-2.332c1.287 0 2.332 1.045 2.332 2.332 0 0.458-0.132 0.885-0.361 1.245l6.278 7.241 2.009-2.009zM12.469 22.775l13.412 3.592-3.592-13.412c-3.273 3.273-6.547 6.547-9.82 9.82zM4.812 15.024c-0.487 0-0.883 0.396-0.883 0.883s0.396 0.883 0.883 0.883c0.487 0 0.883-0.396 0.883-0.883s-0.396-0.883-0.883-0.883zM6.127 9.269c-0.488 0-0.883 0.396-0.883 0.883s0.396 0.883 0.883 0.883c0.487 0 0.883-0.396 0.883-0.883s-0.396-0.883-0.883-0.883zM27.286 9.111c-0.487 0-0.883 0.396-0.883 0.883s0.396 0.883 0.883 0.883c0.488 0 0.883-0.396 0.883-0.883s-0.396-0.883-0.883-0.883zM10.379 5.253c-0.487 0-0.883 0.396-0.883 0.883s0.396 0.883 0.883 0.883c0.488 0 0.883-0.396 0.883-0.883s-0.396-0.883-0.883-0.883zM16.169 4.326c-0.488 0-0.883 0.396-0.883 0.883s0.396 0.883 0.883 0.883c0.487 0 0.883-0.396 0.883-0.883s-0.396-0.883-0.883-0.883z"></path>
</svg>
