<!-- Generated by IcoMoon.io -->
<svg version="1.1" xmlns="http://www.w3.org/2000/svg" width="28" height="28" viewBox="0 0 28 28">
<title>kebab</title>
<path d="M16.834 3.153c0 1.565-1.269 2.834-2.834 2.834s-2.834-1.269-2.834-2.834c0-1.565 1.269-2.834 2.834-2.834s2.834 1.269 2.834 2.834z"></path>
<path d="M16.834 14c0 1.565-1.269 2.834-2.834 2.834s-2.834-1.269-2.834-2.834c0-1.565 1.269-2.834 2.834-2.834s2.834 1.269 2.834 2.834z"></path>
<path d="M16.834 24.847c0 1.565-1.269 2.834-2.834 2.834s-2.834-1.269-2.834-2.834c0-1.565 1.269-2.834 2.834-2.834s2.834 1.269 2.834 2.834z"></path>
</svg>
