<!-- Generated by IcoMoon.io -->
<svg version="1.1" xmlns="http://www.w3.org/2000/svg" width="32" height="32" viewBox="0 0 32 32">
<title>search</title>
<path d="M20.050 22.084c-0.83 0.621-1.738 1.138-2.698 1.53-1.462 0.598-3.037 0.904-4.616 0.904s-3.154-0.306-4.616-0.904c-1.411-0.576-2.708-1.42-3.811-2.471-1.064-1.015-1.944-2.221-2.583-3.546-0.546-1.13-0.914-2.344-1.087-3.587-0.187-1.332-0.153-2.696 0.1-4.017 0.207-1.080 0.562-2.132 1.052-3.117 0.611-1.229 1.431-2.352 2.413-3.311s2.126-1.752 3.371-2.333c1.046-0.489 2.161-0.827 3.302-1.002 0.563-0.086 1.131-0.129 1.701-0.14 0.157-0.001 0.157-0.001 0.315 0 0.57 0.011 1.137 0.054 1.701 0.14 1.141 0.175 2.256 0.513 3.302 1.002 1.288 0.602 2.469 1.431 3.475 2.436 0.97 0.971 1.777 2.105 2.373 3.341 0.501 1.038 0.852 2.147 1.041 3.285 0.204 1.226 0.219 2.485 0.046 3.716-0.174 1.243-0.542 2.457-1.087 3.587-0.343 0.712-0.755 1.388-1.228 2.019l8.903 8.903-2.468 2.467zM12.6 1.834c-0.488 0.009-0.975 0.046-1.459 0.12-0.978 0.149-1.933 0.439-2.828 0.857-1.067 0.499-2.048 1.179-2.89 2.002s-1.545 1.785-2.070 2.84c-0.419 0.843-0.723 1.743-0.9 2.669-0.217 1.133-0.246 2.303-0.086 3.446 0.149 1.064 0.464 2.104 0.931 3.073 0.548 1.136 1.303 2.17 2.216 3.040 0.945 0.901 2.057 1.624 3.267 2.119 1.253 0.512 2.602 0.774 3.955 0.774s2.702-0.262 3.955-0.774c1.208-0.494 2.322-1.218 3.267-2.119 0.913-0.87 1.667-1.904 2.216-3.040 0.467-0.968 0.781-2.008 0.931-3.073 0.16-1.143 0.131-2.312-0.086-3.446-0.169-0.883-0.454-1.745-0.845-2.555-0.512-1.060-1.203-2.033-2.036-2.865-0.862-0.862-1.875-1.574-2.979-2.090-0.896-0.419-1.85-0.708-2.828-0.857-0.483-0.074-0.97-0.111-1.459-0.12-0.136-0.001-0.136-0.001-0.271 0z"></path>
</svg>
