<?xml version="1.0" encoding="UTF-8" standalone="no"?>
<!DOCTYPE svg PUBLIC "-//W3C//DTD SVG 1.1//EN" "http://www.w3.org/Graphics/SVG/1.1/DTD/svg11.dtd">
<svg width="100%" height="100%" viewBox="0 0 38 38" version="1.1" xmlns="http://www.w3.org/2000/svg" xmlns:xlink="http://www.w3.org/1999/xlink" xml:space="preserve" xmlns:serif="http://www.serif.com/" style="fill-rule:evenodd;clip-rule:evenodd;stroke-linejoin:round;stroke-miterlimit:2;">
    <g transform="matrix(1,0,0,1,-825,-509)">
        <g id="Alert" transform="matrix(1,0,0,1,0.501327,0)">
            <path d="M843.645,509.461C853.909,509.461 862.243,517.795 862.243,528.06C862.243,538.325 853.909,546.659 843.645,546.659C833.38,546.659 825.046,538.325 825.046,528.06C825.046,517.795 833.38,509.461 843.645,509.461ZM843.645,513.307C851.787,513.307 858.397,519.918 858.397,528.06C858.397,536.202 851.787,542.813 843.645,542.813C835.502,542.813 828.892,536.202 828.892,528.06C828.892,519.918 835.502,513.307 843.645,513.307Z" style="fill:white;"/>
            <g transform="matrix(1.77809,0,0,1.05436,-658.863,-28.0993)">
                <path d="M846.416,518.863C846.416,517.554 845.787,516.493 845.011,516.493C845.011,516.493 845.01,516.493 845.009,516.493C844.233,516.493 843.604,517.554 843.604,518.863C843.604,521.676 843.604,526.339 843.604,529.152C843.604,530.461 844.233,531.521 845.009,531.521C845.01,531.521 845.011,531.521 845.011,531.521C845.787,531.521 846.416,530.461 846.416,529.152C846.416,526.339 846.416,521.676 846.416,518.863Z" style="fill:white;"/>
            </g>
            <g transform="matrix(1.77809,0,0,0.487012,-658.863,283.109)">
                <path d="M846.416,521.623C846.416,518.79 845.787,516.493 845.011,516.493L845.01,516.493C844.637,516.493 844.28,517.034 844.016,517.997C843.752,518.96 843.604,520.265 843.604,521.627L843.604,521.627C843.604,524.462 844.234,526.76 845.01,526.76L845.011,526.76C845.787,526.76 846.416,524.464 846.416,521.631L846.416,521.623Z" style="fill:white;"/>
            </g>
        </g>
    </g>
</svg>
