<?xml version="1.0" encoding="UTF-8" standalone="no"?>
<!DOCTYPE svg PUBLIC "-//W3C//DTD SVG 1.1//EN" "http://www.w3.org/Graphics/SVG/1.1/DTD/svg11.dtd">
<svg width="100%" height="100%" viewBox="0 0 32 32" version="1.1" xmlns="http://www.w3.org/2000/svg" xmlns:xlink="http://www.w3.org/1999/xlink" xml:space="preserve" xmlns:serif="http://www.serif.com/" style="fill-rule:evenodd;clip-rule:evenodd;stroke-linecap:round;stroke-linejoin:round;stroke-miterlimit:1.5;">
    <g id="tas" transform="matrix(0.0340426,0,0,0.0340426,-0.544681,0.578723)">
        <path d="M747,791C747,791 779.214,807.876 787,807C794.786,806.124 800.894,801.575 807,802C813.106,802.425 823,793 823,793C823,793 831.726,797.402 829,812C826.274,826.598 832,824.18 826,835C820,845.82 823.465,850.162 822,856C820.535,861.838 816.34,854.871 812,860C807.66,865.129 810.523,873.805 805,874C799.477,874.195 801.62,886.338 797,883C788.946,877.18 778.889,881.032 777,877C767.328,856.355 766.067,865.053 764,859C760.408,848.48 757.976,838.092 759,838C763.421,844.886 766.741,847.988 768,844C750.945,824.632 744.921,806.62 747,791Z"/>
    </g>
    <g id="vic" transform="matrix(0.0340426,0,0,0.0340426,-0.544681,0.578723)">
        <path d="M662,601L662,714C666.355,714.951 672.508,724.154 674,726C677.991,730.937 673.829,723.564 680,721C686.171,718.436 688.481,726.289 695,725C701.519,723.711 703.808,731.121 711,733C718.192,734.879 722,739 722,739C722,739 725.214,734.535 732,728C738.786,721.465 735.863,724.768 744,722C752.137,719.232 748.062,716.706 743,718C737.938,719.294 738.803,715.642 747,713C755.197,710.358 756.534,711.282 755,719C753.466,726.718 745.321,720.264 750,726C754.679,731.736 760.938,718.1 766,721C771.062,723.9 757.804,730.449 763,728C768.196,725.551 766.987,736.201 770,732C773.013,727.799 776.501,742.377 778,738C779.499,733.623 787,747 787,747C787,747 783.742,733.976 791,734C798.258,734.024 803.004,727.135 811,718C818.996,708.865 831.015,708.243 839,707C846.985,705.757 857.294,711.606 860,705C862.706,698.394 867.809,699.94 867.715,699.85L828,679C818.272,658.409 831.201,647.58 798,660C775.535,668.404 761.575,637.982 755,653C745.965,673.638 749.342,646.903 730,641C708.425,634.416 726.64,617.551 700,619C683.893,619.876 707.148,595.742 679,605C672.426,607.162 662,601 662,601Z"/>
    </g>
    <g id="act" transform="matrix(0.0340426,0,0,0.0340426,-0.544681,0.578723)">
        <path d="M840,643C840.568,638.424 842.665,633.705 846,634C850.334,634.384 850.24,638.449 849,643C847.76,647.551 848.488,653.299 846,653C843.512,652.701 844,649 844,649C840.53,651.235 839.489,647.116 840,643Z"/>
    </g>
    <g id="nsw" transform="matrix(0.0340426,0,0,0.0340426,-0.544681,0.578723)">
        <path d="M867.715,699.85L828,679C818.272,658.409 831.201,647.58 798,660C775.535,668.404 761.575,637.982 755,653C745.965,673.638 749.342,646.903 730,641C708.425,634.416 726.64,617.551 700,619C683.893,619.876 707.148,595.742 679,605C672.426,607.162 662,601 662,601L663,467L844,468C844,468 853.647,451.438 875,454C905.504,457.66 892.305,477.304 908,468C923.695,458.696 899.818,449.285 928,449C942.876,448.849 948,447 948,447C948,447 950.907,448.591 944,489C936.423,533.327 932.227,535.747 929,547C922.036,571.282 904.012,564.921 902,587C899.988,609.079 890.682,598.448 886,626C883.191,642.53 881.593,631.541 873,656C864.582,679.96 865.813,698.03 867.715,699.85L868,700C867.904,699.99 867.809,699.94 867.715,699.85ZM840,643C840.568,638.424 842.665,633.705 846,634C850.334,634.384 850.24,638.449 849,643C847.76,647.551 848.488,653.299 846,653C843.512,652.701 844,649 844,649C840.53,651.235 839.489,647.116 840,643Z"/>
    </g>
    <g id="qld" transform="matrix(0.0340426,0,0,0.0340426,-0.544681,0.578723)">
        <path d="M948,447C948,447 946.504,445.291 944,429C941.496,412.709 938.384,424.129 940,406C941.616,387.871 937.967,391.675 937,377C936.033,362.325 928.975,382.986 927,367C925.025,351.014 919.801,366.855 916,353C912.199,339.145 897.309,337.305 894,332C890.691,326.695 884.059,330.829 886,315C887.941,299.171 879,296 879,296L882,304C875.791,303.058 871.018,298.088 867,291L869,306C866.926,306.396 854.093,291.838 854,279C853.909,266.371 845.052,263.194 840,259C834.948,254.806 843.569,252.811 839,246C834.431,239.189 830.86,249.814 830,242C829.14,234.186 816.916,243.1 815,234C813.084,224.9 808.257,230.962 806,227C803.743,223.038 798.566,224.991 788,219C777.434,213.009 790.992,204.739 784,203C777.008,201.261 777.183,201.583 780,193C782.817,184.417 777.994,185.09 778,177C778.006,168.91 776.421,168.364 770,163C763.579,157.636 764.426,157.628 765,150C765.574,142.372 763.914,143.775 762,138C760.086,132.225 759.77,129.404 761,125C762.23,120.596 762.46,119.633 758,118C753.54,116.367 751.461,114.79 749,113C746.539,111.21 748.636,115.042 745,105C741.364,94.958 744.046,109.824 740,106C735.954,102.176 735.798,109.314 732,110C728.202,110.686 724.988,108.548 725,103C725.012,97.452 719.906,95.4 722,91C724.094,86.6 720.83,87.732 721,79C721.17,70.268 718.559,74.28 717,72C715.441,69.72 720.413,65.79 717,65C713.587,64.21 713.294,62.428 711,59C708.706,55.572 716,52 716,52C716,52 714.594,50.57 710,50C705.406,49.43 706.093,48.02 706,40C705.907,31.98 701.947,25.343 699,22C696.053,18.657 697.74,24.094 695,26C692.26,27.906 690,27 690,27C690,27 689.935,31.398 689,38C688.065,44.602 686,49 686,49L687,53L684,51C681.968,56.141 679.64,60.488 677,64C677,64 680.907,62.754 683,67C685.093,71.246 675.78,71.827 678,78C680.22,84.173 672.984,93.006 676,99C679.016,104.994 673.219,109.631 677,117C680.781,124.369 672.904,137.004 673,144C673.096,150.996 669.721,160.535 664,167C657.997,173.783 667.053,178.994 654,184C640.641,189.123 641.872,184.71 634,182C612.516,174.604 628.119,172.077 613,166C605.322,162.914 602.709,166.936 596,159L595,390L663,390L663,467L844,468C844,468 853.647,451.438 875,454C905.504,457.66 892.305,477.304 908,468C923.695,458.696 899.818,449.285 928,449C942.876,448.849 948,447 948,447Z"/>
    </g>
    <g id="sa" transform="matrix(0.0340426,0,0,0.0340426,-0.544681,0.578723)">
        <path d="M663,390L662,714C661.265,714.68 653.583,716.782 644,701C626.539,672.243 644.698,689.288 634,662C626.5,642.872 615.537,645.033 614,646C610.471,648.22 599,646 599,646C599,646 608.752,635.862 606,630C603.248,624.138 611.403,626.911 604,616C596.597,605.089 599,602 599,602C599,602 592.929,609.693 592,621C591.071,632.307 590,633 590,633C583.94,630.936 576.779,632.461 569,636C571.245,633.232 572.889,630.092 573,626C576.739,624.1 580.411,624.569 584,628C584,628 582.19,613.995 586,602C590.537,587.717 595.974,591.228 594,586C591.43,579.191 600.261,578.393 595,569C585.821,552.613 590.151,563.357 584,578C579.289,589.215 579.193,592.776 563,599C549.027,604.37 564.878,603.245 553,613C541.122,622.755 543,628 543,628C540.396,628.639 537.257,623.644 534,606C531.493,592.419 523.841,592.06 523.217,587.719C520.678,570.073 510.716,578.569 510,574C507.899,560.592 514.515,559.464 491,552C460.007,542.162 473.183,554.926 465,548C456.818,541.075 440.913,531.112 438,532C439.2,533.093 437.401,539.905 414,536C394.437,532.735 390.903,538.744 391,538L391,390L663,390Z"/>
    </g>
    <g id="nt" transform="matrix(0.0340426,0,0,0.0340426,-0.544681,0.578723)">
        <path d="M504,50C495.043,47.275 483.938,35.132 478,38C472.062,40.868 456.119,25.39 455,33C453.881,40.61 473.011,39.329 474,49C474.989,58.671 469.998,59.214 459,59C448.002,58.786 438.221,50.067 433,59C427.779,67.933 417.334,64.973 418,77C418.666,89.027 409.405,81.699 407,95C404.595,108.301 391.088,101.487 405,116C418.912,130.513 404.371,122.841 398,121C391.629,119.159 391,119 391,119L391,390L595,390L596,159C596.377,156.154 572.399,141.244 564,141C555.878,140.764 556.398,127.653 547,127C537.602,126.347 532.49,116.89 541,110C546.414,105.617 551.574,93.31 548,90C544.048,86.34 544.886,78.431 556,78C572.055,77.377 553.899,73.696 565,66C578.203,56.847 565.101,59.176 562,55C550.806,39.923 559.256,71.244 547,59C541.747,53.753 562.236,34.449 540,53C532.707,59.084 530.782,58.479 526,55C516.717,48.247 526.249,53.921 514,53C509.934,52.694 512.957,52.725 504,50Z"/>
    </g>
    <g id="wa" transform="matrix(0.0340426,0,0,0.0340426,-0.544681,0.578723)">
        <path d="M342,554C352.981,555.325 391,538 391,538L391,119C391,119 382.799,118.044 380,117C377.201,115.956 376.418,117.495 375,120C373.582,122.505 373.015,128.043 371,127C368.985,125.957 372,116 372,116C372,116 362.424,108.419 362,106C361.576,103.581 351,96 351,96C351,96 332.862,94.925 326,104C315.831,117.449 302.747,110.329 304,114C308.116,126.053 297.872,135.797 287,131C280.451,128.11 292.562,150.818 286,153C275.429,156.516 261.239,149.99 269,157C273.358,160.936 272.5,181.451 267,183C260.352,174.928 256.135,165.531 254,155C254,155 236.987,168.418 235,177C233.013,185.582 240,194 240,194C240,194 226.204,204.678 223,213C219.796,221.322 212.943,230.063 200,236C186.159,242.348 171.748,240.482 166,243C160.252,245.518 140.489,259.155 122,258C92.692,256.169 90.537,276.84 78,280C57.723,285.111 62.847,298.655 54,303C47.77,306.06 53,285 53,285C53,285 50.238,286.227 46,294C34.028,315.959 47.461,305.796 45,319C43.433,327.406 35.858,334.418 36,346C36.142,357.582 38.058,359.905 44,369C49.942,378.095 60.123,398.899 53,400C43.396,401.484 40.18,376.868 38,379C34.593,382.332 48.419,402.051 45,404C38.326,407.805 25.952,376.208 25,377C20.524,380.724 38.184,410.097 46,417C53.816,423.903 48.698,445.236 60,454C68.449,460.552 57.048,460.548 66,466C73.932,470.831 69.613,497.192 75,510C81.119,524.548 96.694,547.54 89,558C81.327,568.432 95.13,584.886 81,589C72.91,591.355 72,585 72,585C69.44,594.349 69.045,603.08 75,610C75,610 82.172,606.637 88,614C93.828,621.363 109.23,631.297 125,630C140.77,628.703 157.449,619.392 164,613C170.551,606.608 171.423,619.888 176,607C180.577,594.112 201.091,597.075 212,596C222.909,594.925 269.112,611.803 276,584C280.705,565.01 293.808,575.204 306,563C314.022,554.97 327.943,552.304 342,554Z"/>
    </g>
</svg>
