<svg clip-rule="evenodd" fill-rule="evenodd" stroke-linejoin="round" stroke-miterlimit="2" viewBox="0 0 411 90" xmlns="http://www.w3.org/2000/svg"><g fill="#6eb5c9" fill-rule="nonzero"><path d="m41.094 12.346h-26.779v17.166h22.385c2.075 0 3.624.466 4.646 1.396 1.022.931 1.533 2.175 1.533 3.731 0 1.557-.518 2.792-1.556 3.708s-2.579 1.373-4.623 1.373h-22.385v22.11c0 2.808-.633 4.891-1.9 6.249-1.266 1.358-2.891 2.037-4.875 2.037-2.014 0-3.654-.687-4.921-2.06-1.266-1.373-1.9-3.449-1.9-6.226v-51.635c0-1.954.29-3.548.87-4.784s1.488-2.136 2.724-2.701c1.236-.564 2.815-.847 4.738-.847h32.043c2.167 0 3.777.481 4.83 1.442 1.052.962 1.579 2.22 1.579 3.777 0 1.587-.527 2.861-1.579 3.822-1.053.961-2.663 1.442-4.83 1.442z"/><path d="m68.011 26.399v36.118c0 2.502-.595 4.394-1.786 5.676-1.19 1.282-2.7 1.923-4.531 1.923-1.832 0-3.319-.656-4.464-1.969-1.144-1.312-1.716-3.189-1.716-5.63v-35.751c0-2.472.572-4.334 1.716-5.585 1.145-1.251 2.632-1.877 4.464-1.877 1.831 0 3.341.626 4.531 1.877 1.191 1.251 1.786 2.991 1.786 5.218zm-6.18-12.909c-1.74 0-3.227-.534-4.463-1.602s-1.854-2.578-1.854-4.532c0-1.77.633-3.227 1.899-4.371 1.267-1.145 2.739-1.717 4.418-1.717 1.617 0 3.052.519 4.303 1.557 1.251 1.037 1.877 2.548 1.877 4.531 0 1.923-.611 3.426-1.831 4.509-1.221 1.084-2.671 1.625-4.349 1.625z"/><path d="m92.272 26.216v1.511c2.197-2.899 4.601-5.028 7.21-6.386s5.608-2.037 8.995-2.037c3.296 0 6.241.717 8.835 2.152 2.594 1.434 4.532 3.463 5.813 6.088.824 1.526 1.358 3.174 1.603 4.944.244 1.77.366 4.028.366 6.775v23.254c0 2.502-.572 4.394-1.717 5.676-1.144 1.282-2.632 1.923-4.463 1.923-1.862 0-3.372-.656-4.532-1.969-1.16-1.312-1.739-3.189-1.739-5.63v-20.828c0-4.12-.573-7.271-1.717-9.453s-3.426-3.273-6.844-3.273c-2.227 0-4.257.664-6.088 1.991-1.831 1.328-3.174 3.151-4.028 5.47-.61 1.862-.916 5.341-.916 10.437v15.656c0 2.533-.587 4.433-1.762 5.699-1.175 1.267-2.693 1.9-4.555 1.9-1.8 0-3.28-.656-4.44-1.969-1.16-1.312-1.74-3.189-1.74-5.63v-36.118c0-2.38.519-4.158 1.557-5.333 1.037-1.174 2.456-1.762 4.257-1.762 1.099 0 2.09.259 2.975.778s1.595 1.297 2.129 2.335c.534 1.037.801 2.304.801 3.799z"/><path d="m171.786 62.975v-1.236c-1.679 1.922-3.334 3.486-4.967 4.692-1.633 1.205-3.403 2.121-5.31 2.746-1.907.626-3.99.939-6.249.939-2.99 0-5.76-.633-8.308-1.9-2.548-1.266-4.753-3.075-6.615-5.424-1.861-2.35-3.273-5.112-4.234-8.286s-1.442-6.607-1.442-10.3c0-7.812 1.907-13.9 5.722-18.264s8.835-6.546 15.061-6.546c3.601 0 6.637.618 9.109 1.854s4.883 3.135 7.233 5.699v-18.448c0-2.564.511-4.502 1.533-5.814 1.023-1.312 2.48-1.968 4.372-1.968s3.349.603 4.372 1.808c1.022 1.205 1.533 2.983 1.533 5.333v55.115c0 2.38-.549 4.165-1.648 5.356-1.099 1.19-2.518 1.785-4.257 1.785-1.709 0-3.121-.618-4.234-1.854-1.114-1.236-1.671-2.998-1.671-5.287zm-24.582-18.357c0 3.388.526 6.272 1.579 8.652s2.495 4.173 4.326 5.379c1.831 1.205 3.83 1.808 5.997 1.808 2.197 0 4.203-.572 6.019-1.717 1.816-1.144 3.266-2.899 4.349-5.264s1.625-5.318 1.625-8.858c0-3.326-.542-6.187-1.625-8.583-1.083-2.395-2.548-4.226-4.395-5.493-1.846-1.266-3.868-1.9-6.065-1.9-2.289 0-4.333.649-6.134 1.946-1.8 1.297-3.197 3.158-4.188 5.585-.992 2.426-1.488 5.241-1.488 8.445z"/><path d="m271.441 48.83c0 4.059-1.045 7.705-3.136 10.94-2.09 3.235-5.15 5.768-9.178 7.599s-8.804 2.747-14.328 2.747c-6.622 0-12.085-1.251-16.388-3.754-3.052-1.8-5.531-4.204-7.439-7.21-1.907-3.006-2.861-5.928-2.861-8.766 0-1.648.573-3.059 1.717-4.234s2.602-1.762 4.372-1.762c1.434 0 2.647.457 3.639 1.373.992.915 1.839 2.273 2.54 4.074.855 2.136 1.778 3.921 2.77 5.356.992 1.434 2.388 2.617 4.188 3.547 1.801.931 4.166 1.397 7.096 1.397 4.028 0 7.301-.939 9.819-2.816s3.776-4.219 3.776-7.026c0-2.228-.679-4.036-2.037-5.425-1.358-1.388-3.112-2.449-5.264-3.181-2.151-.733-5.028-1.511-8.629-2.335-4.822-1.129-8.858-2.449-12.108-3.96-3.25-1.51-5.829-3.57-7.736-6.179-1.907-2.61-2.861-5.852-2.861-9.728 0-3.692 1.007-6.973 3.021-9.842 2.015-2.868 4.929-5.073 8.744-6.614 3.814-1.542 8.3-2.312 13.458-2.312 4.12 0 7.683.511 10.689 1.533 3.006 1.023 5.5 2.381 7.484 4.074 1.984 1.694 3.433 3.472 4.349 5.333.915 1.862 1.373 3.678 1.373 5.448 0 1.617-.572 3.074-1.716 4.371-1.145 1.297-2.572 1.946-4.281 1.946-1.556 0-2.738-.389-3.547-1.167-.809-.779-1.686-2.053-2.632-3.823-1.221-2.533-2.686-4.509-4.395-5.928s-4.455-2.128-8.24-2.128c-3.509 0-6.34.77-8.491 2.311-2.152 1.542-3.227 3.395-3.227 5.562 0 1.343.366 2.503 1.098 3.479.733.977 1.74 1.816 3.022 2.518 1.281.702 2.578 1.251 3.89 1.648 1.313.397 3.479.976 6.501 1.739 3.784.885 7.21 1.862 10.277 2.93s5.676 2.365 7.827 3.891c2.152 1.526 3.83 3.456 5.036 5.791 1.205 2.334 1.808 5.195 1.808 8.583z"/><path d="m294.604 26.399v36.118c0 2.502-.595 4.394-1.786 5.676-1.19 1.282-2.7 1.923-4.531 1.923s-3.319-.656-4.464-1.969c-1.144-1.312-1.716-3.189-1.716-5.63v-35.751c0-2.472.572-4.334 1.716-5.585 1.145-1.251 2.633-1.877 4.464-1.877s3.341.626 4.531 1.877c1.191 1.251 1.786 2.991 1.786 5.218zm-6.18-12.909c-1.74 0-3.227-.534-4.463-1.602s-1.854-2.578-1.854-4.532c0-1.77.633-3.227 1.899-4.371 1.267-1.145 2.739-1.717 4.418-1.717 1.617 0 3.052.519 4.303 1.557 1.251 1.037 1.877 2.548 1.877 4.531 0 1.923-.611 3.426-1.831 4.509-1.221 1.084-2.671 1.625-4.349 1.625z"/><path d="m353.472 28.459v36.301c0 4.15-.442 7.721-1.327 10.712-.885 2.99-2.304 5.462-4.258 7.415-1.953 1.954-4.509 3.403-7.667 4.349-3.159.946-7.088 1.419-11.788 1.419-4.303 0-8.148-.602-11.535-1.808-3.388-1.205-5.997-2.762-7.828-4.669s-2.747-3.868-2.747-5.882c0-1.526.519-2.77 1.557-3.731 1.037-.961 2.289-1.442 3.754-1.442 1.831 0 3.433.809 4.806 2.426.671.824 1.366 1.656 2.083 2.495s1.51 1.556 2.38 2.151 1.915 1.038 3.136 1.328 2.624.435 4.211.435c3.235 0 5.745-.45 7.531-1.351 1.785-.9 3.036-2.159 3.753-3.776.717-1.618 1.137-3.35 1.259-5.196s.214-4.814.275-8.903c-1.923 2.685-4.143 4.73-6.661 6.134-2.517 1.404-5.516 2.105-8.995 2.105-4.181 0-7.835-1.068-10.963-3.204s-5.532-5.127-7.21-8.972-2.518-8.286-2.518-13.321c0-3.754.511-7.141 1.534-10.162 1.022-3.022 2.479-5.57 4.371-7.645 1.893-2.075 4.075-3.639 6.546-4.692 2.472-1.053 5.188-1.579 8.149-1.579 3.54 0 6.607.679 9.201 2.037s5.005 3.486 7.232 6.385v-1.693c0-2.167.534-3.845 1.603-5.036 1.068-1.19 2.441-1.785 4.119-1.785 2.411 0 4.013.786 4.807 2.358.793 1.571 1.19 3.837 1.19 6.797zm-36.209 15.839c0 5.066 1.106 8.896 3.319 11.49 2.212 2.594 5.073 3.891 8.583 3.891 2.075 0 4.036-.557 5.882-1.671s3.349-2.792 4.509-5.035 1.74-4.967 1.74-8.172c0-5.096-1.122-9.063-3.365-11.901-2.243-2.839-5.196-4.258-8.858-4.258-3.57 0-6.431 1.358-8.583 4.075-2.151 2.716-3.227 6.576-3.227 11.581z"/><path d="m377.459 26.216v1.511c2.197-2.899 4.6-5.028 7.21-6.386 2.609-1.358 5.607-2.037 8.995-2.037 3.296 0 6.241.717 8.835 2.152 2.594 1.434 4.531 3.463 5.813 6.088.824 1.526 1.358 3.174 1.602 4.944.245 1.77.367 4.028.367 6.775v23.254c0 2.502-.573 4.394-1.717 5.676s-2.632 1.923-4.463 1.923c-1.862 0-3.372-.656-4.532-1.969-1.16-1.312-1.74-3.189-1.74-5.63v-20.828c0-4.12-.572-7.271-1.716-9.453-1.145-2.182-3.426-3.273-6.844-3.273-2.228 0-4.257.664-6.088 1.991-1.831 1.328-3.174 3.151-4.028 5.47-.611 1.862-.916 5.341-.916 10.437v15.656c0 2.533-.587 4.433-1.762 5.699-1.175 1.267-2.693 1.9-4.555 1.9-1.801 0-3.281-.656-4.44-1.969-1.16-1.312-1.74-3.189-1.74-5.63v-36.118c0-2.38.519-4.158 1.557-5.333 1.037-1.174 2.456-1.762 4.257-1.762 1.098 0 2.09.259 2.975.778s1.595 1.297 2.129 2.335c.534 1.037.801 2.304.801 3.799z"/></g></svg>