<svg clip-rule="evenodd" fill-rule="evenodd" stroke-linejoin="round" stroke-miterlimit="2" viewBox="0 0 147 125" xmlns="http://www.w3.org/2000/svg"><path d="m145.098 64.271s-5.797 1.584-8.604 7.01c-2.807 5.427-4.833 14.212-7.188 20.132-2.791 7.015-5.632 7.95-9.091 14.78-2.638 5.207-2.605 2.815-5.854 7.016-5.35 6.918-5.723 6.031-7.202 8.426-1.01 1.634-1.682 2.564-2.249 2.624 0 0-4.502-2.234-.731-6.973 3.771-4.738 11.556-13.375 10.304-14.546-.564-.527-5.923 4.794-13.412 9.044-8.712 4.944-15.618 4.561-18.114 5.044-4.194.811-6.25-3.979.126-6.092 6.083-2.017 6.728-1.466 6.728-1.466s.828-.67 3.4-1.425c2.572-.754 5.624-1.961 5.624-1.961s1.889-2.195 4.096-4.095c2.372-2.042 6.348-4.566 5.905-5.015-.443-.45-5.377 2.547-8.994 3.74s-5.743 1.3-10.603 1.452c-9.029.283-9.216-3.15-12.87-5.566-3.516-2.326-4.224-3.605-4.224-3.605s1.73-6.033 7.239-2.504 5.725 4.717 5.725 4.717.44-.199 4.487-.695c4.048-.496 5.522-.221 5.522-.221l11.541-8.532.72-2.351s-3.625 3.074-11.003 3.264c-7.378.191-5.36 1.121-13.411-4.617-8.052-5.738-6.98-6.174-7.11-10.233-.131-4.059 1.456-8.172 1.456-8.172s-2.303-.045-.578-3.406c1.804-3.514 2.505-5.839 3.117-8.749 1.162-5.521 3.728-5.306 6.769-6.025 5.853-1.383 11.723-3.756 15.029-4.705 3.996-1.147 8.934-3.764 11.572-2.838 3.019 1.059 6.501 1.399 10.462.972 3.796-.408 14.999-4.964 15.263-5.897 5.695 9.226 7.543 17.699 6.153 31.468zm-144.616-4.183s5.797-1.583 8.604-7.01 4.833-14.212 7.188-20.132c2.791-7.015 5.632-7.95 9.091-14.779 2.638-5.207 2.605-2.816 5.854-7.017 5.35-6.917 5.723-6.031 7.202-8.425 1.01-1.634 1.682-2.564 2.249-2.624 0 0 4.502 2.234.731 6.972-3.771 4.739-11.556 13.376-10.304 14.546.564.528 5.923-4.793 13.412-9.043 8.712-4.944 15.618-4.562 18.114-5.045 4.194-.811 6.25 3.979-.126 6.093-6.083 2.016-6.728 1.465-6.728 1.465s-.828.67-3.4 1.425-5.624 1.962-5.624 1.962-1.889 2.194-4.096 4.095c-2.372 2.042-6.348 4.566-5.905 5.015.443.45 5.376-2.547 8.994-3.741 3.617-1.193 5.743-1.299 10.603-1.452 9.029-.283 9.216 3.15 12.87 5.567 3.516 2.326 4.224 3.604 4.224 3.604s-1.73 6.034-7.239 2.504c-5.509-3.529-5.725-4.716-5.725-4.716s-.44.198-4.488.695c-4.047.496-5.521.221-5.521.221l-11.541 8.531-.72 2.351s3.625-3.073 11.003-3.264c7.378-.19 5.36-1.12 13.411 4.618 8.052 5.737 6.98 6.173 7.11 10.232.131 4.06-1.456 8.172-1.456 8.172s2.303.046.577 3.407c-1.803 3.514-2.504 5.839-3.117 8.748-1.161 5.522-3.727 5.306-6.768 6.025-5.853 1.384-11.723 3.757-15.029 4.705-3.996 1.147-8.934 3.764-11.572 2.839-3.019-1.059-6.501-1.399-10.462-.973-3.796.409-14.999 4.965-15.263 5.897-5.695-9.226-7.543-17.699-6.153-31.468zm79.532 4.072c3.267-2.963 5.674-5.874 6.824-8.708l.99-.661c4.354.693 8.768.351 13.264-1.398 1.51 4.281 8.298 7.402 8.027 10.467-.418 4.746-2.183 9.165-8.158 10.91-4.313 1.26-7.955 3.312-7.955 3.312-2.397-2.183-5.471-3.986-8.753-4.88-.804-3.713-1.908-6.717-4.239-9.042zm-14.448-3.961c-3.267 2.964-5.674 5.875-6.824 8.709l-.99.661c-4.354-.694-8.768-.352-13.264 1.397-1.51-4.28-8.298-7.401-8.027-10.466.418-4.746 2.182-9.165 8.158-10.911 4.313-1.26 7.955-3.311 7.955-3.311 2.397 2.182 5.471 3.986 8.752 4.88.805 3.712 1.909 6.716 4.24 9.041z" fill="#7fbfc3"/></svg>