<svg clip-rule="evenodd" fill-rule="evenodd" stroke-linejoin="round" stroke-miterlimit="2" viewBox="0 0 38 38" xmlns="http://www.w3.org/2000/svg"><path d="m23.809 26.225c-.986.738-2.064 1.351-3.204 1.817-1.736.71-3.606 1.073-5.481 1.073s-3.745-.363-5.481-1.073c-1.675-.684-3.216-1.686-4.525-2.934-1.264-1.205-2.309-2.637-3.067-4.211-.648-1.342-1.085-2.784-1.291-4.26-.222-1.582-.182-3.201.119-4.77.246-1.283.667-2.532 1.249-3.702.726-1.459 1.699-2.793 2.865-3.932 1.167-1.139 2.525-2.081 4.003-2.771 1.242-.581 2.566-.982 3.921-1.19.669-.102 1.343-.153 2.02-.166.187-.001.187-.001.374 0 .677.013 1.35.064 2.02.166 1.355.208 2.679.609 3.921 1.19 1.53.715 2.932 1.699 4.127 2.893 1.152 1.153 2.11 2.5 2.818 3.968.595 1.233 1.012 2.55 1.236 3.901.242 1.456.26 2.951.055 4.413-.207 1.476-.644 2.918-1.291 4.26-.407.845-.896 1.648-1.458 2.398l10.572 10.572-2.931 2.93zm-8.846-24.047c-.58.011-1.158.055-1.732.143-1.161.177-2.295.521-3.358 1.018-1.267.592-2.432 1.4-3.432 2.377-1 .976-1.835 2.12-2.458 3.372-.498 1.001-.859 2.07-1.069 3.169-.258 1.346-.292 2.735-.102 4.092.177 1.264.551 2.499 1.105 3.649.651 1.349 1.547 2.577 2.631 3.61 1.122 1.07 2.443 1.929 3.879 2.516 1.488.608 3.09.919 4.697.919s3.209-.311 4.697-.919c1.435-.587 2.757-1.446 3.879-2.516 1.084-1.033 1.98-2.261 2.631-3.61.554-1.15.928-2.385 1.105-3.649.19-1.357.156-2.746-.102-4.092-.201-1.049-.539-2.072-1.003-3.034-.608-1.259-1.429-2.414-2.418-3.402-1.024-1.024-2.226-1.869-3.538-2.482-1.064-.497-2.197-.841-3.358-1.018-.574-.088-1.152-.132-1.732-.143-.162-.001-.161-.001-.322 0z" fill="#afbcdf"/></svg>