<?xml version="1.0" encoding="UTF-8" standalone="no"?>
<!DOCTYPE svg PUBLIC "-//W3C//DTD SVG 1.1//EN" "http://www.w3.org/Graphics/SVG/1.1/DTD/svg11.dtd">
<svg width="100%" height="100%" viewBox="0 0 512 480" version="1.1" xmlns="http://www.w3.org/2000/svg" xmlns:xlink="http://www.w3.org/1999/xlink" xml:space="preserve" xmlns:serif="http://www.serif.com/" style="fill-rule:evenodd;clip-rule:evenodd;stroke-linecap:round;stroke-linejoin:round;stroke-miterlimit:1.5;">
	<path id="tas" d="M398.162,424.102c-0,0 17.546,9.192 21.787,8.715c4.241,-0.477 7.568,-2.955 10.894,-2.723c3.325,0.231 8.714,-4.903 8.714,-4.903c0,0 4.753,2.398 3.269,10.349c-1.485,7.952 1.634,6.635 -1.635,12.528c-3.268,5.893 -1.38,8.259 -2.178,11.438c-0.798,3.18 -3.083,-0.614 -5.447,2.179c-2.364,2.794 -0.805,7.519 -3.813,7.626c-3.008,0.106 -1.841,6.72 -4.357,4.902c-4.387,-3.17 -9.865,-1.072 -10.894,-3.268c-5.268,-11.245 -5.955,-6.508 -7.081,-9.805c-1.956,-5.73 -3.281,-11.388 -2.723,-11.438c2.408,3.751 4.216,5.44 4.902,3.268c-9.29,-10.549 -12.57,-20.36 -11.438,-28.868Z" />
	<path id="vic" d="M351.864,320.613l-0,61.549c2.372,0.518 5.723,5.53 6.536,6.536c2.174,2.689 -0.093,-1.327 3.268,-2.724c3.361,-1.396 4.62,2.881 8.17,2.179c3.551,-0.702 4.798,3.334 8.715,4.358c3.917,1.023 5.992,3.268 5.992,3.268c-0,-0 1.751,-2.432 5.446,-5.992c3.696,-3.559 2.105,-1.76 6.537,-3.268c4.432,-1.508 2.212,-2.883 -0.545,-2.179c-2.757,0.705 -2.286,-1.284 2.179,-2.723c4.464,-1.439 5.193,-0.936 4.357,3.268c-0.835,4.204 -5.272,0.689 -2.723,3.813c2.548,3.124 5.958,-4.303 8.715,-2.724c2.757,1.58 -4.464,5.147 -1.634,3.813c2.83,-1.334 2.171,4.467 3.812,2.179c1.642,-2.288 3.541,5.652 4.358,3.268c0.816,-2.384 4.902,4.902 4.902,4.902c-0,0 -1.775,-7.094 2.179,-7.081c3.953,0.013 6.538,-3.739 10.893,-8.715c4.356,-4.975 10.902,-5.314 15.251,-5.991c4.349,-0.677 9.965,2.509 11.439,-1.089c1.474,-3.599 4.253,-2.756 4.202,-2.805l-21.632,-11.357c-5.299,-11.216 1.743,-17.114 -16.341,-10.349c-12.236,4.578 -19.84,-11.993 -23.421,-3.813c-4.921,11.241 -3.082,-3.321 -13.617,-6.536c-11.752,-3.586 -1.83,-12.772 -16.34,-11.983c-8.774,0.477 3.893,-12.668 -11.439,-7.626c-3.58,1.178 -9.259,-2.178 -9.259,-2.178Z" />
	<path id="nsw" d="M463.913,374.455l-21.632,-11.357c-5.299,-11.216 1.743,-17.114 -16.341,-10.349c-12.236,4.578 -19.84,-11.993 -23.421,-3.813c-4.921,11.241 -3.082,-3.321 -13.617,-6.536c-11.752,-3.586 -1.83,-12.772 -16.34,-11.983c-8.774,0.477 3.893,-12.668 -11.439,-7.626c-3.58,1.178 -9.259,-2.178 -9.259,-2.178l0.545,-72.987l98.587,0.544c-0,0 5.254,-9.021 16.885,-7.625c16.615,1.993 9.425,12.693 17.974,7.625c8.549,-5.068 -4.456,-10.193 10.894,-10.349c8.103,-0.082 10.894,-1.089 10.894,-1.089c-0,-0 1.583,0.866 -2.179,22.877c-4.127,24.144 -6.413,25.462 -8.17,31.591c-3.793,13.226 -13.611,9.761 -14.707,21.787c-1.095,12.026 -6.164,6.236 -8.715,21.243c-1.53,9.003 -2.4,3.018 -7.081,16.34c-4.584,13.051 -3.914,22.893 -2.878,23.885l0.155,0.081c-0.052,-0.005 -0.104,-0.032 -0.155,-0.081Z" />
	<path id="qld" d="M507.643,236.732c-0,-0 -0.815,-0.931 -2.179,-9.804c-1.364,-8.874 -3.059,-2.654 -2.179,-12.528c0.88,-9.874 -1.107,-7.803 -1.634,-15.796c-0.527,-7.993 -4.371,3.261 -5.447,-5.447c-1.075,-8.707 -3.921,-0.079 -5.991,-7.625c-2.07,-7.546 -10.181,-8.549 -11.983,-11.438c-1.802,-2.89 -5.415,-0.638 -4.358,-9.26c1.058,-8.622 -3.812,-10.349 -3.812,-10.349l1.634,4.358c-3.382,-0.514 -5.982,-3.22 -8.171,-7.081l1.09,8.17c-1.13,0.215 -8.12,-7.714 -8.17,-14.706c-0.05,-6.879 -4.874,-8.61 -7.626,-10.894c-2.752,-2.284 1.944,-3.371 -0.545,-7.081c-2.488,-3.71 -4.433,2.077 -4.902,-2.179c-0.468,-4.256 -7.126,0.599 -8.17,-4.357c-1.044,-4.957 -3.673,-1.655 -4.902,-3.813c-1.23,-2.158 -4.049,-1.094 -9.804,-4.357c-5.755,-3.264 1.629,-7.768 -2.179,-8.715c-3.809,-0.948 -3.713,-0.772 -2.179,-5.447c1.535,-4.675 -1.093,-4.309 -1.089,-8.715c0.003,-4.406 -0.86,-4.704 -4.358,-7.625c-3.497,-2.922 -3.036,-2.927 -2.723,-7.081c0.312,-4.155 -0.591,-3.391 -1.634,-6.536c-1.043,-3.146 -1.215,-4.682 -0.545,-7.081c0.67,-2.399 0.795,-2.924 -1.634,-3.813c-2.429,-0.89 -3.561,-1.748 -4.902,-2.723c-1.34,-0.976 -0.198,1.112 -2.179,-4.358c-1.98,-5.47 -0.519,2.628 -2.723,0.545c-2.204,-2.083 -2.289,1.805 -4.358,2.178c-2.068,0.374 -3.819,-0.79 -3.812,-3.812c0.006,-3.022 -2.775,-4.14 -1.634,-6.536c1.14,-2.397 -0.637,-1.78 -0.545,-6.537c0.092,-4.756 -1.329,-2.57 -2.179,-3.812c-0.849,-1.242 1.859,-3.383 0,-3.813c-1.859,-0.43 -2.019,-1.401 -3.268,-3.268c-1.249,-1.868 2.724,-3.813 2.724,-3.813c-0,-0 -0.766,-0.779 -3.268,-1.089c-2.503,-0.311 -2.129,-1.079 -2.179,-5.447c-0.051,-4.368 -2.208,-7.984 -3.813,-9.804c-1.605,-1.821 -0.686,1.14 -2.179,2.178c-1.492,1.039 -2.723,0.545 -2.723,0.545c-0,-0 -0.035,2.396 -0.545,5.991c-0.509,3.596 -1.634,5.992 -1.634,5.992l0.545,2.179l-1.634,-1.09c-1.107,2.801 -2.375,5.168 -3.813,7.081c0,0 2.128,-0.679 3.268,1.634c1.14,2.313 -3.932,2.63 -2.723,5.992c1.209,3.362 -2.732,8.173 -1.09,11.438c1.643,3.265 -1.514,5.791 0.545,9.804c2.059,4.014 -2.231,10.896 -2.179,14.707c0.053,3.81 -1.785,9.006 -4.902,12.527c-3.27,3.695 1.663,6.533 -5.447,9.26c-7.276,2.79 -6.605,0.387 -10.893,-1.09c-11.702,-4.028 -3.204,-5.404 -11.439,-8.714c-4.182,-1.681 -5.605,0.509 -9.259,-3.813l-0.545,125.821l37.039,0l-0,41.941l98.587,0.544c-0,0 5.254,-9.021 16.885,-7.625c16.615,1.993 9.425,12.693 17.974,7.625c8.549,-5.068 -4.456,-10.193 10.894,-10.349c8.103,-0.082 10.894,-1.089 10.894,-1.089Z" />
	<path id="sa" d="M352.409,205.685l-0.545,176.477c-0.401,0.37 -4.585,1.515 -9.804,-7.081c-9.511,-15.664 0.38,-6.38 -5.447,-21.243c-4.085,-10.419 -10.057,-9.241 -10.894,-8.715c-1.922,1.209 -8.17,0 -8.17,0c-0,0 5.312,-5.522 3.813,-8.714c-1.499,-3.193 2.943,-1.683 -1.09,-7.626c-4.032,-5.943 -2.723,-7.626 -2.723,-7.626c-0,0 -3.307,4.191 -3.813,10.349c-0.506,6.159 -1.089,6.537 -1.089,6.537c-3.301,-1.125 -7.202,-0.294 -11.438,1.634c1.222,-1.508 2.118,-3.218 2.178,-5.447c2.037,-1.035 4.037,-0.779 5.992,1.089c-0,0 -0.986,-7.628 1.089,-14.162c2.471,-7.779 5.432,-5.867 4.358,-8.714c-1.401,-3.709 3.41,-4.144 0.544,-9.26c-4.999,-8.926 -2.641,-3.074 -5.991,4.902c-2.566,6.109 -2.619,8.049 -11.439,11.438c-7.611,2.926 1.023,2.313 -5.446,7.626c-6.47,5.313 -5.447,8.17 -5.447,8.17c-1.418,0.348 -3.128,-2.372 -4.902,-11.983c-1.366,-7.397 -5.534,-7.593 -5.874,-9.957c-1.383,-9.612 -6.809,-4.984 -7.199,-7.473c-1.144,-7.303 2.46,-7.917 -10.349,-11.983c-16.881,-5.358 -9.704,1.594 -14.161,-2.178c-4.457,-3.772 -13.12,-9.199 -14.707,-8.715c0.654,0.595 -0.326,4.306 -13.072,2.179c-10.656,-1.779 -12.58,1.494 -12.528,1.089l0,-80.613l148.154,0Z" />
	<path id="nt" d="M265.804,20.494c-4.879,-1.485 -10.927,-8.099 -14.161,-6.537c-3.235,1.562 -11.919,-6.868 -12.528,-2.723c-0.61,4.145 9.81,3.447 10.349,8.715c0.538,5.268 -2.18,5.563 -8.17,5.447c-5.991,-0.117 -11.318,-4.866 -14.162,-0c-2.844,4.865 -8.533,3.253 -8.17,9.804c0.362,6.551 -4.682,2.56 -5.992,9.804c-1.31,7.245 -8.666,3.534 -1.089,11.439c7.577,7.905 -0.343,3.725 -3.813,2.723c-3.47,-1.003 -3.813,-1.089 -3.813,-1.089l0,147.608l111.115,0l0.545,-125.821c0.205,-1.55 -12.855,-9.671 -17.43,-9.804c-4.424,-0.129 -4.141,-7.27 -9.259,-7.626c-5.119,-0.356 -7.904,-5.507 -3.269,-9.26c2.949,-2.387 5.76,-9.09 3.813,-10.893c-2.153,-1.993 -1.696,-6.302 4.358,-6.536c8.745,-0.339 -1.145,-2.344 4.902,-6.536c7.191,-4.986 0.055,-3.717 -1.634,-5.992c-6.097,-8.212 -1.495,8.848 -8.17,2.179c-2.862,-2.858 8.298,-13.373 -3.813,-3.268c-3.973,3.314 -5.021,2.984 -7.626,1.089c-5.056,-3.678 0.136,-0.588 -6.536,-1.089c-2.214,-0.167 -0.568,-0.15 -5.447,-1.634Z" />
	<path id="wa" d="M177.566,295.013c5.981,0.722 26.689,-8.715 26.689,-8.715l0,-228.221c0,-0 -4.467,-0.521 -5.991,-1.09c-1.524,-0.569 -1.951,0.27 -2.724,1.634c-0.772,1.365 -1.081,4.381 -2.178,3.813c-1.098,-0.568 0.544,-5.991 0.544,-5.991c0,-0 -5.216,-4.129 -5.446,-5.447c-0.231,-1.318 -5.992,-5.447 -5.992,-5.447c0,-0 -9.879,-0.586 -13.617,4.357c-5.539,7.326 -12.666,3.448 -11.983,5.447c2.242,6.565 -3.338,11.873 -9.259,9.26c-3.567,-1.574 3.029,10.794 -0.545,11.983c-5.758,1.915 -13.487,-1.64 -9.26,2.178c2.374,2.144 1.907,13.319 -1.089,14.162c-3.621,-4.397 -5.918,-9.515 -7.081,-15.251c0,0 -9.266,7.309 -10.349,11.983c-1.082,4.674 2.724,9.26 2.724,9.26c-0,-0 -7.515,5.816 -9.26,10.349c-1.745,4.532 -5.478,9.294 -12.528,12.527c-7.538,3.458 -15.388,2.441 -18.519,3.813c-3.131,1.372 -13.895,8.8 -23.966,8.17c-15.963,-0.997 -17.137,10.262 -23.966,11.983c-11.044,2.784 -8.253,10.161 -13.072,12.528c-3.394,1.666 -0.545,-9.804 -0.545,-9.804c0,-0 -1.504,0.668 -3.813,4.902c-6.521,11.96 0.796,6.425 -0.544,13.617c-0.854,4.578 -4.98,8.398 -4.902,14.706c0.077,6.308 1.121,7.574 4.357,12.528c3.236,4.953 8.782,16.285 4.902,16.885c-5.231,0.808 -6.982,-12.6 -8.17,-11.438c-1.856,1.814 5.675,12.555 3.813,13.617c-3.635,2.072 -10.375,-15.138 -10.894,-14.707c-2.438,2.029 7.181,18.028 11.438,21.787c4.258,3.76 1.47,15.38 7.626,20.154c4.602,3.568 -1.608,3.566 3.268,6.536c4.32,2.631 1.968,16.99 4.902,23.966c3.333,7.924 11.817,20.447 7.626,26.144c-4.18,5.682 3.339,14.645 -4.358,16.886c-4.406,1.282 -4.902,-2.179 -4.902,-2.179c-1.394,5.092 -1.609,9.848 1.634,13.617c0,-0 3.907,-1.832 7.081,2.179c3.174,4.01 11.564,9.421 20.153,8.715c8.59,-0.707 17.675,-5.778 21.243,-9.26c3.568,-3.482 4.043,3.752 6.536,-3.268c2.493,-7.02 13.667,-5.406 19.608,-5.992c5.942,-0.585 31.108,8.608 34.86,-6.536c2.563,-10.343 9.7,-4.791 16.34,-11.438c4.37,-4.374 11.953,-5.826 19.609,-4.902Z" />
</svg>
