<svg clip-rule="evenodd" fill-rule="evenodd" stroke-linejoin="round" stroke-miterlimit="2" viewBox="0 0 164 159" xmlns="http://www.w3.org/2000/svg"><path d="m102.544 62.673-18.792-25.714c-1.078.332-2.224.51-3.41.51-6.396 0-11.588-5.192-11.588-11.587s5.192-11.587 11.588-11.587c6.395 0 11.587 5.192 11.587 11.587 0 2.669-.904 5.128-2.422 7.088l18.046 24.694 6.817-6.817c8.041 30.021 16.082 60.042 24.122 90.063l-90.062-24.122zm-40.59 50.49 66.641 17.849-17.849-66.641c-16.264 16.264-32.528 32.528-48.792 48.792zm18.388-91.67c2.422 0 4.388 1.967 4.388 4.389s-1.966 4.389-4.388 4.389c-2.423 0-4.389-1.967-4.389-4.389s1.966-4.389 4.389-4.389z" fill="#99a9c9"/></svg>