<svg clip-rule="evenodd" fill-rule="evenodd" stroke-linejoin="round" stroke-miterlimit="2" viewBox="0 0 164 159" xmlns="http://www.w3.org/2000/svg"><path d="m102.544 62.673-18.792-25.714c-1.078.332-2.224.51-3.41.51-6.396 0-11.588-5.192-11.588-11.587s5.192-11.587 11.588-11.587c6.395 0 11.587 5.192 11.587 11.587 0 2.669-.904 5.128-2.422 7.088l18.046 24.694 6.817-6.817c8.041 30.021 16.082 60.042 24.122 90.063l-90.062-24.122 8.651-8.651-26.36-19.725c-1.912 1.391-4.265 2.212-6.809 2.212-6.395 0-11.587-5.192-11.587-11.587s5.192-11.587 11.587-11.587 11.587 5.192 11.587 11.587c0 1.31-.217 2.57-.619 3.744l27.201 20.355 9.451-9.451-35.307-33.197c-1.702.983-3.676 1.545-5.78 1.545-6.396 0-11.588-5.192-11.588-11.588 0-6.395 5.192-11.587 11.588-11.587 6.395 0 11.587 5.192 11.587 11.587 0 1.744-.386 3.398-1.077 4.882l35.529 33.406 11.114-11.114-31.581-36.429c-1.369.57-2.87.885-4.445.885-6.395 0-11.587-5.192-11.587-11.587 0-6.396 5.192-11.588 11.587-11.588 6.396 0 11.588 5.192 11.588 11.588 0 2.275-.657 4.397-1.792 6.188l31.193 35.981zm-40.59 50.49 66.641 17.849-17.849-66.641c-16.264 16.264-32.528 32.528-48.792 48.792zm-38.042-38.515c2.422 0 4.389 1.967 4.389 4.389s-1.967 4.389-4.389 4.389-4.389-1.967-4.389-4.389 1.967-4.389 4.389-4.389zm6.533-28.591c2.422 0 4.388 1.966 4.388 4.388 0 2.423-1.966 4.389-4.388 4.389-2.423 0-4.389-1.966-4.389-4.389 0-2.422 1.966-4.388 4.389-4.388zm21.127-19.958c2.423 0 4.389 1.966 4.389 4.389 0 2.422-1.966 4.388-4.389 4.388-2.422 0-4.388-1.966-4.388-4.388 0-2.423 1.966-4.389 4.388-4.389zm28.77-4.606c2.422 0 4.388 1.967 4.388 4.389s-1.966 4.389-4.388 4.389c-2.423 0-4.389-1.967-4.389-4.389s1.966-4.389 4.389-4.389z" fill="#99a9c9"/></svg>