<svg clip-rule="evenodd" fill-rule="evenodd" stroke-linejoin="round" stroke-miterlimit="2" viewBox="0 0 164 159" xmlns="http://www.w3.org/2000/svg"><g fill="#99a9c9"><path d="m138.492 140.91-90.062-24.122 65.94-65.941c8.041 30.021 16.082 60.042 24.122 90.063zm-76.538-27.747 66.641 17.849-17.849-66.641c-16.264 16.264-32.528 32.528-48.792 48.792z"/><path d="m135.026 61.234c-6.14-.288-11.037-5.364-11.037-11.575 0-6.395 5.192-11.587 11.587-11.587 6.396 0 11.588 5.192 11.588 11.587 0 4.109-2.143 7.721-5.371 9.778l8.191 33.549-19.922 19.564-4.905-4.994 17.083-16.776zm.55-15.963c2.423 0 4.389 1.966 4.389 4.388 0 2.423-1.966 4.389-4.389 4.389-2.422 0-4.388-1.966-4.388-4.389 0-2.422 1.966-4.388 4.388-4.388z"/><path d="m30.721 88.412c-1.912 1.391-4.265 2.212-6.809 2.212-6.395 0-11.587-5.192-11.587-11.587s5.192-11.587 11.587-11.587 11.587 5.192 11.587 11.587c0 1.31-.217 2.57-.619 3.744l29.332 21.949-4.194 5.604zm-6.809-13.764c2.422 0 4.389 1.967 4.389 4.389s-1.967 4.389-4.389 4.389-4.389-1.967-4.389-4.389 1.967-4.389 4.389-4.389z"/><path d="m36.225 60.488c-1.702.983-3.676 1.545-5.78 1.545-6.396 0-11.588-5.192-11.588-11.588 0-6.395 5.192-11.587 11.588-11.587 6.395 0 11.587 5.192 11.587 11.587 0 1.744-.386 3.398-1.077 4.882l37.882 35.618-4.795 5.1zm-5.78-14.431c2.422 0 4.388 1.966 4.388 4.388 0 2.423-1.966 4.389-4.388 4.389-2.423 0-4.389-1.966-4.389-4.389 0-2.422 1.966-4.388 4.389-4.388z"/><path d="m56.017 41.19c-1.369.57-2.87.885-4.445.885-6.395 0-11.587-5.192-11.587-11.587 0-6.396 5.192-11.588 11.587-11.588 6.396 0 11.588 5.192 11.588 11.588 0 2.275-.657 4.397-1.792 6.188l33.77 38.953-5.29 4.585zm-4.445-15.091c2.423 0 4.389 1.966 4.389 4.389 0 2.422-1.966 4.388-4.389 4.388-2.422 0-4.388-1.966-4.388-4.388 0-2.423 1.966-4.389 4.388-4.389z"/><path d="m83.752 36.959c-1.078.332-2.224.51-3.41.51-6.396 0-11.588-5.192-11.588-11.587s5.192-11.587 11.588-11.587c6.395 0 11.587 5.192 11.587 11.587 0 2.669-.904 5.128-2.422 7.088l20.241 27.696-5.652 4.131zm-3.41-15.466c2.422 0 4.388 1.967 4.388 4.389s-1.966 4.389-4.388 4.389c-2.423 0-4.389-1.967-4.389-4.389s1.966-4.389 4.389-4.389z"/></g></svg>