<svg clip-rule="evenodd" fill-rule="evenodd" stroke-linejoin="round" stroke-miterlimit="2" viewBox="0 0 164 159" xmlns="http://www.w3.org/2000/svg"><path d="m128.642 104.134 13.598-13.354-7.214-29.546c-6.14-.288-11.037-5.364-11.037-11.575 0-6.395 5.192-11.587 11.587-11.587 6.396 0 11.588 5.192 11.588 11.587 0 4.109-2.143 7.721-5.371 9.778l8.191 33.549-19.261 18.915 7.769 29.009-90.062-24.122 65.94-65.941zm-66.688 9.029 66.641 17.849-17.849-66.641c-16.264 16.264-32.528 32.528-48.792 48.792zm73.622-67.892c2.423 0 4.389 1.966 4.389 4.388 0 2.423-1.966 4.389-4.389 4.389-2.422 0-4.388-1.966-4.388-4.389 0-2.422 1.966-4.388 4.388-4.388z" fill="#99a9c9"/></svg>