<svg clip-rule="evenodd" fill-rule="evenodd" stroke-linejoin="round" stroke-miterlimit="2" viewBox="0 0 164 159" xmlns="http://www.w3.org/2000/svg"><g fill="#99a9c9"><path d="m138.492 140.91-90.062-24.122 65.94-65.941c8.041 30.021 16.082 60.042 24.122 90.063zm-76.538-27.747 66.641 17.849-17.849-66.641c-16.264 16.264-32.528 32.528-48.792 48.792z"/><path d="m135.026 61.234c-6.14-.288-11.037-5.364-11.037-11.575 0-6.395 5.192-11.587 11.587-11.587 6.396 0 11.588 5.192 11.588 11.587 0 4.109-2.143 7.721-5.371 9.778l8.191 33.549-19.922 19.564-4.905-4.994 17.083-16.776zm.55-15.963c2.423 0 4.389 1.966 4.389 4.388 0 2.423-1.966 4.389-4.389 4.389-2.422 0-4.388-1.966-4.388-4.389 0-2.422 1.966-4.388 4.388-4.388z"/></g></svg>