<svg clip-rule="evenodd" fill-rule="evenodd" stroke-linejoin="round" stroke-miterlimit="2" viewBox="0 0 164 159" xmlns="http://www.w3.org/2000/svg"><path d="m102.544 62.673-18.792-25.714c-1.078.332-2.224.51-3.41.51-6.396 0-11.588-5.192-11.588-11.587s5.192-11.587 11.588-11.587c6.395 0 11.587 5.192 11.587 11.587 0 2.669-.904 5.128-2.422 7.088l18.046 24.694 6.817-6.817 14.272 53.287 13.598-13.354-7.214-29.546c-6.14-.288-11.037-5.364-11.037-11.575 0-6.395 5.192-11.587 11.587-11.587 6.396 0 11.588 5.192 11.588 11.587 0 4.109-2.143 7.721-5.371 9.778l8.191 33.549-19.261 18.915 7.769 29.009-90.062-24.122 39.168-39.169-31.581-36.429c-1.369.57-2.87.885-4.445.885-6.395 0-11.587-5.192-11.587-11.587 0-6.396 5.192-11.588 11.587-11.588 6.396 0 11.588 5.192 11.588 11.588 0 2.275-.657 4.397-1.792 6.188l31.193 35.981 9.983-9.984zm-40.59 50.49 66.641 17.849-17.849-66.641c-16.264 16.264-32.528 32.528-48.792 48.792zm73.622-67.892c2.423 0 4.389 1.966 4.389 4.388 0 2.423-1.966 4.389-4.389 4.389-2.422 0-4.388-1.966-4.388-4.389 0-2.422 1.966-4.388 4.388-4.388zm-84.004-19.172c2.423 0 4.389 1.966 4.389 4.389 0 2.422-1.966 4.388-4.389 4.388-2.422 0-4.388-1.966-4.388-4.388 0-2.423 1.966-4.389 4.388-4.389zm28.77-4.606c2.422 0 4.388 1.967 4.388 4.389s-1.966 4.389-4.388 4.389c-2.423 0-4.389-1.967-4.389-4.389s1.966-4.389 4.389-4.389z" fill="#99a9c9"/></svg>