<!-- Generated by IcoMoon.io -->
<svg version="1.1" xmlns="http://www.w3.org/2000/svg" width="33" height="32" viewBox="0 0 33 32">
<title>6</title>
<path d="M25.89 20.958l2.737-2.688-1.452-5.946c-1.236-0.058-2.221-1.080-2.221-2.33 0-1.287 1.045-2.332 2.332-2.332s2.332 1.045 2.332 2.332c0 0.827-0.431 1.554-1.081 1.968l1.648 6.752-3.876 3.807 1.564 5.838-18.126-4.855 13.271-13.271zM12.469 22.775l13.412 3.592-3.592-13.412c-3.273 3.273-6.547 6.547-9.82 9.82zM27.286 9.111c-0.487 0-0.883 0.396-0.883 0.883s0.396 0.883 0.883 0.883c0.488 0 0.883-0.396 0.883-0.883s-0.396-0.883-0.883-0.883z"></path>
</svg>
