<!-- Generated by IcoMoon.io -->
<svg version="1.1" xmlns="http://www.w3.org/2000/svg" width="32" height="32" viewBox="0 0 32 32">
<title>alert</title>
<path d="M16.123 0.388c-8.644 0-15.662 7.018-15.662 15.662s7.018 15.662 15.662 15.662c8.643 0 15.661-7.018 15.661-15.662s-7.018-15.662-15.661-15.662zM16.123 3.627c6.856 0 12.423 5.567 12.423 12.424s-5.566 12.424-12.423 12.424c-6.857 0-12.424-5.567-12.424-12.424s5.566-12.424 12.424-12.424z"></path>
<path d="M18.225 8.395c0-1.162-0.942-2.104-2.104-2.104 0 0-0.002 0-0.003 0-1.162 0-2.104 0.942-2.104 2.104 0 2.498 0 6.638 0 9.135 0 1.162 0.942 2.103 2.104 2.103 0.002 0 0.003 0 0.003 0 1.162 0 2.104-0.941 2.104-2.103 0-2.498 0-6.638 0-9.135z"></path>
<path d="M18.225 23.702c0-1.162-0.942-2.104-2.104-2.104h-0.002c-0.559 0-1.093 0.222-1.488 0.617s-0.617 0.93-0.617 1.489v0c0 1.163 0.943 2.105 2.105 2.105h0.002c1.162 0 2.104-0.942 2.104-2.103v-0.003z"></path>
</svg>
