<!-- Generated by IcoMoon.io -->
<svg version="1.1" xmlns="http://www.w3.org/2000/svg" width="38" height="32" viewBox="0 0 38 32">
<title>interpret</title>
<path d="M37.145 16.453s-1.484 0.405-2.203 1.795c-0.719 1.389-1.237 3.638-1.84 5.154-0.715 1.796-1.442 2.035-2.327 3.784-0.675 1.333-0.667 0.721-1.499 1.796-1.37 1.771-1.465 1.544-1.844 2.157-0.259 0.418-0.431 0.656-0.576 0.672 0 0-1.152-0.572-0.187-1.785s2.958-3.424 2.638-3.724c-0.144-0.135-1.516 1.227-3.433 2.315-2.23 1.266-3.998 1.168-4.637 1.291-1.074 0.208-1.6-1.019 0.032-1.56 1.557-0.516 1.722-0.375 1.722-0.375s0.212-0.172 0.87-0.365c0.658-0.193 1.44-0.502 1.44-0.502s0.484-0.562 1.049-1.048c0.607-0.523 1.625-1.169 1.512-1.284s-1.377 0.652-2.302 0.957-1.47 0.333-2.714 0.372c-2.311 0.072-2.359-0.806-3.295-1.425-0.9-0.595-1.081-0.923-1.081-0.923s0.443-1.544 1.853-0.641 1.466 1.208 1.466 1.208 0.113-0.051 1.149-0.178c1.036-0.127 1.414-0.057 1.414-0.057l2.954-2.184 0.184-0.602s-0.928 0.787-2.817 0.836c-1.889 0.049-1.372 0.287-3.433-1.182s-1.787-1.581-1.82-2.62c-0.034-1.039 0.373-2.092 0.373-2.092s-0.59-0.012-0.148-0.872c0.462-0.9 0.641-1.495 0.798-2.24 0.297-1.413 0.954-1.358 1.733-1.542 1.498-0.354 3.001-0.962 3.847-1.204 1.023-0.294 2.287-0.964 2.962-0.727 0.773 0.271 1.664 0.358 2.678 0.249 0.972-0.104 3.84-1.271 3.907-1.51 1.458 2.362 1.931 4.531 1.575 8.056zM0.123 15.383c-0.356 3.525 0.117 5.694 1.575 8.056 0.068-0.239 2.936-1.405 3.907-1.51 1.014-0.109 1.905-0.022 2.678 0.249 0.675 0.237 1.939-0.433 2.962-0.727 0.846-0.243 2.349-0.85 3.847-1.204 0.778-0.184 1.435-0.129 1.733-1.542 0.157-0.745 0.336-1.34 0.798-2.239 0.442-0.86-0.148-0.872-0.148-0.872s0.406-1.053 0.373-2.092c-0.033-1.039 0.241-1.151-1.82-2.619s-1.544-1.231-3.433-1.182c-1.889 0.049 0.322-1.95-2.817 0.836l0.184-0.602 2.954-2.184c0 0 0.377 0.070 1.413-0.057s1.149-0.178 1.149-0.178 0.055 0.304 1.466 1.207c1.41 0.904 1.853-0.641 1.853-0.641s-0.181-0.327-1.081-0.923c-0.935-0.619-0.983-1.498-3.295-1.425-1.244 0.039-1.788 0.066-2.714 0.372s-2.189 1.073-2.302 0.958c-0.113-0.115 0.904-0.761 1.512-1.284 0.565-0.487 1.049-1.048 1.049-1.048s0.781-0.309 1.44-0.502c0.658-0.193 0.87-0.365 0.87-0.365s0.165 0.141 1.722-0.375c1.632-0.541 1.106-1.767 0.032-1.56-0.639 0.124-2.407 0.026-4.637 1.292-1.917 1.088-3.289 2.45-3.433 2.315-0.321-0.3 1.672-2.511 2.638-3.724s-0.187-1.785-0.187-1.785c-0.145 0.015-0.317 0.253-0.576 0.672-0.379 0.613-0.474 0.386-1.844 2.157-0.832 1.075-0.823 0.463-1.499 1.796-0.886 1.748-1.613 1.988-2.327 3.783-0.603 1.516-1.122 3.764-1.84 5.154s-2.326-13.588-2.203 1.795zM20.484 16.425c0.597 0.595 0.879 1.364 1.085 2.315 0.84 0.229 1.627 0.69 2.241 1.249 0 0 0.932-0.525 2.036-0.848 1.53-0.447 1.981-1.578 2.088-2.793 0.069-0.785-1.668-1.584-2.055-2.68-1.151 0.448-2.281 0.535-3.396 0.358l-0.253 0.169c-0.294 0.726-0.911 1.471-1.747 2.229zM16.785 15.411c-0.836 0.759-1.453 1.504-1.747 2.229l-0.253 0.169c-1.115-0.178-2.245-0.090-3.396 0.358-0.387-1.096-2.124-1.895-2.055-2.679 0.107-1.215 0.559-2.346 2.088-2.793 1.104-0.323 2.036-0.848 2.036-0.848 0.614 0.559 1.401 1.020 2.241 1.249 0.206 0.95 0.489 1.719 1.085 2.315z"></path>
</svg>
